<svg width="200" height="104" viewBox="0 0 200 104" fill="none" xmlns="http://www.w3.org/2000/svg">
<path d="M142.015 0H137.916C137.792 0 137.694 0.0995372 137.694 0.221193V51.9182V103.779C137.694 103.903 137.792 104 137.916 104H142.018C142.142 104 142.239 103.903 142.239 103.779V52.031V0.221193C142.237 0.0995372 142.14 0 142.015 0Z" fill="#333333"/>
<path d="M158.073 0H151.388C151.264 0 151.167 0.0995372 151.167 0.221193V51.9248V103.779C151.167 103.903 151.264 104 151.388 104H158.073C158.198 104 158.295 103.903 158.295 103.779V52.1504V0.221193C158.295 0.0995372 158.198 0 158.073 0Z" fill="#333333"/>
<path d="M199.778 0H193.073C192.949 0 192.851 0.0995372 192.851 0.221193V103.779C192.851 103.903 192.949 104 193.073 104H199.778C199.902 104 200 103.903 200 103.779V0.221193C200 0.0995372 199.902 0 199.778 0Z" fill="#333333"/>
<path d="M129.133 0H122.368C122.244 0 122.146 0.0995372 122.146 0.221193V103.779C122.146 103.903 122.244 104 122.368 104H129.133C129.257 104 129.355 103.903 129.355 103.779V0.221193C129.353 0.0995372 129.255 0 129.133 0Z" fill="#333333"/>
<path d="M118.255 0H117.279C117.155 0 117.058 0.0995372 117.058 0.221193V103.779C117.058 103.903 117.155 104 117.279 104H118.255C118.379 104 118.477 103.903 118.477 103.779V0.221193C118.477 0.0995372 118.379 0 118.255 0Z" fill="#333333"/>
<path d="M4.39246 0H0.221729C0.0997781 0 0 0.0995372 0 0.221193V103.779C0 103.903 0.0997781 104 0.221729 104H4.39246C4.51441 104 4.61419 103.903 4.61419 103.779V0.221193C4.61419 0.0995372 4.51663 0 4.39246 0Z" fill="#333333"/>
<path d="M113.559 0H109.319C109.195 0 109.098 0.0995372 109.098 0.221193V103.779C109.098 103.903 109.195 104 109.319 104H113.559C113.683 104 113.781 103.903 113.781 103.779C113.781 96.3534 113.781 88.9258 113.781 81.5004C113.781 69.1225 113.781 56.7446 113.781 44.3667V14.6628V0.223403C113.781 0.099536 113.683 0 113.559 0Z" fill="#333333"/>
<path d="M9.23493 0H8.1928C8.07085 0 7.97107 0.0995372 7.97107 0.221193V103.779C7.97107 103.903 8.07085 104 8.1928 104H9.23493C9.35688 104 9.45666 103.903 9.45666 103.779V0.221193C9.45666 0.0995372 9.35688 0 9.23493 0Z" fill="#333333"/>
<path d="M19.9201 0H19.0132C18.8913 0 18.7915 0.0995372 18.7915 0.221193V103.779C18.7915 103.903 18.8913 104 19.0132 104H19.9201C20.0421 104 20.1418 103.903 20.1418 103.779V0.221193C20.1418 0.0995372 20.0421 0 19.9201 0Z" fill="#333333"/>
<path d="M32.847 0H26.7405C26.6186 0 26.5188 0.0995372 26.5188 0.221193V103.779C26.5188 103.903 26.6186 104 26.7405 104H32.847C32.9689 104 33.0687 103.903 33.0687 103.779V0.221193C33.0687 0.0995372 32.9711 0 32.847 0Z" fill="#333333"/>
<path d="M43.714 0H39.5677C39.4457 0 39.3459 0.0995372 39.3459 0.221193V103.779C39.3459 103.903 39.4457 104 39.5677 104H43.714C43.836 104 43.9357 103.903 43.9357 103.779V0.221193C43.9357 0.0995372 43.836 0 43.714 0Z" fill="#333333"/>
<path d="M48.7361 0H47.7649C47.643 0 47.5432 0.0995372 47.5432 0.221193V103.779C47.5432 103.903 47.643 104 47.7649 104H48.7361C48.8581 104 48.9578 103.903 48.9578 103.779V0.221193C48.9578 0.0995372 48.8581 0 48.7361 0Z" fill="#333333"/>
<path d="M59.6696 0H52.8182C52.6962 0 52.5964 0.0995372 52.5964 0.221193V103.779C52.5964 103.903 52.6962 104 52.8182 104H59.6696C59.7916 104 59.8913 103.903 59.8913 103.779V0.221193C59.8913 0.0995372 59.7916 0 59.6696 0Z" fill="#333333"/>
<path d="M64.3303 0H63.5121C63.3902 0 63.2904 0.0995372 63.2904 0.221193V103.779C63.2904 103.903 63.3902 104 63.5121 104H64.3303C64.4523 104 64.552 103.903 64.552 103.779V0.221193C64.552 0.0995372 64.4523 0 64.3303 0Z" fill="#333333"/>
<path d="M77.8249 0H68.4946C68.3726 0 68.2728 0.0995372 68.2728 0.221193V103.779C68.2728 103.903 68.3726 104 68.4946 104H77.8249C77.9469 104 78.0467 103.903 78.0467 103.779V0.221193C78.0467 0.0995372 77.9469 0 77.8249 0Z" fill="#333333"/>
<path d="M90.7428 0H84.2706C84.1486 0 84.0488 0.0995372 84.0488 0.221193V103.779C84.0488 103.903 84.1486 104 84.2706 104H90.7428C90.8648 104 90.9646 103.903 90.9646 103.779V0.221193C90.9646 0.0995372 90.8648 0 90.7428 0Z" fill="#333333"/>
<path d="M98.57 0H97.5966C97.4747 0 97.3749 0.0995372 97.3749 0.221193V103.779C97.3749 103.903 97.4747 104 97.5966 104H98.57C98.6919 104 98.7917 103.903 98.7917 103.779V0.221193C98.7917 0.0995372 98.6919 0 98.57 0Z" fill="#333333"/>
<path d="M106.701 0H102.603C102.479 0 102.381 0.0995372 102.381 0.221193V103.779C102.381 103.903 102.479 104 102.603 104H106.701C106.825 104 106.922 103.903 106.922 103.779V0.221193C106.922 0.0995372 106.825 0 106.701 0Z" fill="#333333"/>
<path d="M165.953 0H161.512C161.388 0 161.29 0.0995372 161.29 0.221193V51.9204V103.779C161.29 103.903 161.388 104 161.512 104H165.953C166.078 104 166.175 103.903 166.175 103.779V51.9845V0.221193C166.175 0.0995372 166.078 0 165.953 0Z" fill="#333333"/>
<path d="M170.601 0H169.654C169.53 0 169.433 0.0995372 169.433 0.221193V52V103.779C169.433 103.903 169.53 104 169.654 104H170.601C170.725 104 170.823 103.903 170.823 103.779V52V0.221193C170.821 0.0995372 170.723 0 170.601 0Z" fill="#333333"/>
<path d="M178.887 0H174.854C174.73 0 174.632 0.0995372 174.632 0.221193V51.9403V103.779C174.632 103.903 174.73 104 174.854 104H178.887C179.011 104 179.109 103.903 179.109 103.779V52.042V0.221193C179.109 0.0995372 179.011 0 178.887 0Z" fill="#333333"/>
<path d="M184.005 0H183.033C182.909 0 182.812 0.0995372 182.812 0.221193V52V103.779C182.812 103.903 182.909 104 183.033 104H184.005C184.129 104 184.226 103.903 184.226 103.779V52V0.221193C184.224 0.0995372 184.127 0 184.005 0Z" fill="#333333"/>
</svg>
