<?xml version="1.0" encoding="utf-8"?>
<!-- Generator: Adobe Illustrator 22.0.0, SVG Export Plug-In . SVG Version: 6.00 Build 0)  -->
<svg version="1.1" id="Capa_1" xmlns="http://www.w3.org/2000/svg" xmlns:xlink="http://www.w3.org/1999/xlink" x="0px" y="0px"
	 viewBox="0 0 69.3 14.5" style="enable-background:new 0 0 69.3 14.5;" xml:space="preserve">
<g>
	<title>logo-krack</title>
	<polygon points="8,6.5 13.7,0.7 12.9,0.7 6.8,6.9 6.8,6.9 6.6,7.1 6.3,7.3 6.1,7.4 5.8,7.5 5.5,7.5 5.3,7.5 5,7.5 4.7,7.3 4.7,7.3 
		4.6,7.2 4.4,7.1 4.3,6.9 4.2,6.8 4.1,6.5 4.1,6.4 4.1,6.2 4.1,5.9 4.1,0.7 0.3,0.7 0.3,13.9 4.1,13.9 4.1,10.1 5.7,8.4 9.7,13.9 
		13.4,13.9 	"/>
	<polygon points="63.4,6.5 69,0.7 68.2,0.7 62.1,6.9 62.1,6.9 61.9,7.1 61.7,7.3 61.4,7.4 61.1,7.5 60.8,7.5 60.6,7.5 60.3,7.5 
		60,7.3 60,7.3 59.9,7.2 59.7,7.1 59.6,6.9 59.5,6.8 59.4,6.5 59.4,6.4 59.3,6.2 59.3,5.9 59.3,0.7 55.6,0.7 55.6,13.9 59.3,13.9 
		59.3,10.1 61,8.4 65,13.9 68.7,13.9 	"/>
	<polygon points="36.7,0.4 35.6,3.1 30.3,13.9 31,13.9 34,7.8 34,7.8 34,7.8 34.1,7.6 34.3,7.4 34.4,7.2 34.6,7.1 34.8,7 35,6.9 
		35.2,6.8 35.4,6.8 35.4,6.8 35.6,6.8 35.9,6.9 36.1,7 36.3,7.1 36.5,7.3 36.6,7.4 36.7,7.6 36.8,7.9 36.8,7.9 39.8,13.9 43.5,13.9 
			"/>
	<polygon points="53.8,12.5 53.8,12.5 53.4,12.8 52.9,13 52.5,13.2 52,13.4 51.6,13.5 51,13.6 50.6,13.7 50.1,13.7 50.1,13.7 
		49.6,13.7 49.3,13.6 48.9,13.6 48.5,13.5 48.5,13.5 48.3,13.4 48.1,13.3 47.9,13.2 47.7,13.1 47.6,12.9 47.5,12.7 47.3,12.5 
		47.2,12.3 47.2,12.3 47.1,11.9 47.1,11.5 47.1,11.5 47.1,3 47.1,3 47.1,2.8 47.1,2.6 47.2,2.3 47.2,2.1 47.2,2.1 47.3,1.9 
		47.5,1.7 47.6,1.5 47.7,1.4 47.9,1.2 48.1,1.1 48.3,1 48.5,1 48.5,1 48.5,1 48.9,0.9 49.3,0.8 49.6,0.7 50.1,0.7 50.1,0.7 
		50.5,0.8 51,0.8 51.5,0.9 51.9,1 52.4,1.2 52.8,1.4 53.2,1.6 53.6,1.8 54,1.4 54,1.4 53.5,1.1 53.1,0.9 52.6,0.7 52.1,0.5 
		51.6,0.4 51.1,0.3 50.6,0.2 50.1,0.2 50.1,0.2 49.8,0.2 49.4,0.2 49.1,0.3 48.7,0.3 48,0.5 47.4,0.7 46.8,1 46.2,1.4 45.7,1.8 
		45.2,2.3 44.7,2.8 44.3,3.3 43.9,3.9 43.6,4.5 43.4,5.1 43.2,5.8 43.2,6.2 43.1,6.5 43.1,6.8 43.1,7.2 43.1,7.2 43.1,7.6 43.1,7.9 
		43.2,8.3 43.2,8.6 43.4,9.3 43.6,9.9 43.9,10.6 44.3,11.1 44.7,11.7 45.2,12.2 45.7,12.6 46.2,13 46.8,13.4 47.4,13.7 48,13.9 
		48.7,14.1 49.1,14.2 49.4,14.2 49.8,14.2 50.1,14.2 50.1,14.2 50.7,14.2 51.2,14.2 51.7,14 52.2,13.9 52.7,13.7 53.2,13.5 
		53.7,13.3 54.1,13 	"/>
	<polygon points="24.9,9.9 24.9,9.9 25.3,9.8 25.7,9.7 26,9.5 26.3,9.3 26.6,9.1 26.9,8.8 27.2,8.6 27.4,8.3 27.7,8 27.9,7.6 
		28,7.3 28.2,6.9 28.3,6.6 28.4,6.2 28.4,5.8 28.4,5.4 28.4,5.4 28.4,4.9 28.3,4.4 28.2,4 28.1,3.6 27.9,3.2 27.6,2.8 27.4,2.4 
		27.1,2.1 26.7,1.8 26.3,1.5 26,1.3 25.6,1.1 25.1,0.9 24.7,0.8 24.2,0.7 23.7,0.7 15.2,0.7 15.2,9.9 15.2,10.1 15.2,13.9 
		15.9,13.9 15.9,11.6 15.9,11.6 15.9,11.4 15.9,11.2 16,11 16.1,10.8 16.1,10.8 16.2,10.6 16.3,10.5 16.5,10.4 16.7,10.3 16.8,10.2 
		17,10.1 17.2,10.1 17.5,10.1 23.4,10.1 23.4,10.1 23.5,10.1 23.5,10.1 23.5,10.1 23.8,10.1 24.1,10.2 24.4,10.3 24.6,10.5 
		24.6,10.5 24.7,10.5 24.7,10.5 24.7,10.6 28,13.9 28.9,13.9 	"/>
</g>
</svg>
